<svg width="1920" height="101" viewBox="0 0 1920 101" fill="none" xmlns="http://www.w3.org/2000/svg">
<path d="M82.0367 35.646L0 23.23V0H1920V101C1860.82 42.3366 1776.19 17.2186 1694.6 34.1001L1690.21 35.0074C1663.24 40.5862 1635.56 41.7945 1608.21 38.586L1514.46 27.5877C1489.8 24.6942 1464.86 24.9266 1440.26 28.2796L1358.76 39.3849C1339.02 42.0747 1319.06 42.758 1299.18 41.4243L1057.18 25.187C1037.78 23.8855 1018.3 24.5048 999.023 27.0357L927.453 36.4329C892.216 41.0596 856.434 39.281 821.829 31.183L767.87 18.5555C735.385 10.9536 701.847 8.91701 668.681 12.5324L570.549 23.23L256.164 16.0136C231.268 15.4421 206.46 19.1659 182.829 27.0214C150.382 37.8073 115.844 40.7627 82.0367 35.646Z" fill="#EDE7DD"/>
</svg>
