<svg width="44" height="194" viewBox="0 0 44 194" fill="none" xmlns="http://www.w3.org/2000/svg">
<path d="M31.1927 110.443V110.443C32.0837 110.43 32.2656 111.697 31.4066 111.933L30.4822 112.187C26.8264 113.193 22.9666 113.196 19.3074 112.196L18.2806 111.916C17.3911 111.673 17.5531 110.366 18.4749 110.349V110.349" stroke="#6D6875" stroke-width="1.54696" stroke-linecap="round"/>
<path d="M31.1594 108.698V108.698C32.0504 108.685 32.2322 109.952 31.3733 110.189L30.4489 110.443C26.7931 111.448 22.9333 111.451 19.2741 110.452L18.2473 110.171C17.3577 109.928 17.5198 108.621 18.4416 108.604V108.604" stroke="#6D6875" stroke-width="1.54696" stroke-linecap="round"/>
<path d="M30.4157 108.698L31.3401 108.444C32.199 108.208 32.0172 106.94 31.1262 106.954L18.4084 106.86C17.4866 106.876 17.3245 108.184 18.2141 108.427L19.2409 108.707C22.9001 109.706 26.7599 109.703 30.4157 108.698Z" stroke="#6D6875" stroke-width="1.54696" stroke-linecap="round"/>
<path d="M23.2891 105L23.2896 106.741L26.7702 106.74L26.7698 105L23.2891 105ZM23.2597 0.000487607L23.2891 105L26.7698 105L26.7403 -0.000487607L23.2597 0.000487607Z" fill="#6D6875"/>
<path d="M9.37255 127.734C11.2225 124.504 13.0614 121.731 14.9739 118.94C16.2374 117.095 18.3347 116 20.5702 116C22.7273 116 24.7793 117.011 25.8944 118.858C28.1254 122.552 30.1718 127.047 31.6921 130.678C35.6863 140.217 38 150.046 38 160.434C38 170.918 36.1847 183.765 27.6554 190.92C23.379 194.507 17.8449 194.076 13.263 191.331C7.11228 187.646 3.31012 180.613 1.45671 173.817C-0.396986 167.021 -0.32344 159.524 0.793305 152.595C1.54769 147.915 2.63133 143.292 4.2379 138.861C5.62205 135.044 7.6528 131.412 9.37255 127.734Z" fill="white"/>
<path d="M21 113.5C18.3395 117.357 15.8661 120.88 13.3725 125.234C11.6528 128.912 9.62205 132.544 8.2379 136.361C6.63133 140.792 5.54769 145.415 4.7933 150.095C3.67656 157.024 3.60301 164.521 5.45671 171.317C7.31012 178.113 11.1123 185.146 17.263 188.831C21.8449 191.576 27.379 192.007 31.6554 188.42C40.1847 181.265 42 168.418 42 157.934C42 147.546 39.6863 137.717 35.6921 128.178C33.7496 123.539 30.9479 117.488 28 113.5" stroke="#6D6875" stroke-width="3" stroke-linecap="round"/>
</svg>
